<svg width="62" height="63" viewBox="0 0 62 63" fill="none" xmlns="http://www.w3.org/2000/svg">
<path d="M53.2544 0.58252H8.74563C6.45261 0.58252 4.25351 1.49342 2.6321 3.11483C1.01069 4.73623 0.0997925 6.93534 0.0997925 9.22835V53.7717C0.106181 56.0627 1.01913 58.2581 2.63915 59.8782C4.25918 61.4982 6.45457 62.4111 8.74563 62.4175H53.2544C55.5454 62.4111 57.7408 61.4982 59.3608 59.8782C60.9809 58.2581 61.8938 56.0627 61.9002 53.7717V9.22835C61.9002 8.09297 61.6766 6.9687 61.2421 5.91974C60.8076 4.87078 60.1707 3.91767 59.3679 3.11483C58.5651 2.31199 57.6119 1.67514 56.563 1.24064C55.514 0.806151 54.3898 0.58252 53.2544 0.58252ZM3.55813 9.22835C3.55813 7.85254 4.10466 6.53308 5.07751 5.56024C6.05035 4.58739 7.36981 4.04085 8.74563 4.04085H53.2544C54.6302 4.04085 55.9496 4.58739 56.9225 5.56024C57.8953 6.53308 58.4419 7.85254 58.4419 9.22835V39.1775L45.0235 25.7592C44.0469 24.7953 42.7299 24.2548 41.3577 24.2548C39.9855 24.2548 38.6685 24.7953 37.6919 25.7592L21.9219 41.5638C21.5916 41.8804 21.1517 42.0572 20.6942 42.0572C20.2366 42.0572 19.7968 41.8804 19.4665 41.5638L17.5298 39.6271C16.5476 38.6739 15.2327 38.1407 13.864 38.1407C12.4952 38.1407 11.1803 38.6739 10.1981 39.6271L3.55813 46.2671V9.22835ZM58.4419 53.7717C58.4419 55.1475 57.8953 56.467 56.9225 57.4398C55.9496 58.4126 54.6302 58.9592 53.2544 58.9592H8.74563C7.36981 58.9592 6.05035 58.4126 5.07751 57.4398C4.10466 56.467 3.55813 55.1475 3.55813 53.7717V51.1779L12.6708 42.0825C12.9957 41.7694 13.4301 41.5956 13.8813 41.5984C14.3428 41.5953 14.788 41.7685 15.1262 42.0825L17.0283 44.0192C18.005 44.9831 19.322 45.5236 20.6942 45.5236C22.0664 45.5236 23.3834 44.9831 24.36 44.0192L40.1646 28.2146C40.3253 28.0525 40.5166 27.9239 40.7273 27.8361C40.938 27.7483 41.164 27.7031 41.3923 27.7031C41.6206 27.7031 41.8466 27.7483 42.0573 27.8361C42.268 27.9239 42.4593 28.0525 42.62 28.2146L58.4592 44.0538L58.4419 53.7717Z" fill="#444444"/>
<path d="M17.3811 26.5373C15.6711 26.5373 13.9995 26.0302 12.5777 25.0802C11.1559 24.1302 10.0477 22.7799 9.39336 21.2001C8.73898 19.6202 8.56776 17.8819 8.90136 16.2047C9.23496 14.5276 10.0584 12.9871 11.2675 11.7779C12.4767 10.5688 14.0172 9.74534 15.6943 9.41174C17.3715 9.07814 19.1099 9.24935 20.6897 9.90373C22.2695 10.5581 23.6198 11.6663 24.5698 13.0881C25.5198 14.5099 26.0269 16.1815 26.0269 17.8914C26.0269 20.1845 25.116 22.3836 23.4946 24.005C21.8732 25.6264 19.6741 26.5373 17.3811 26.5373ZM17.3811 12.7039C16.3551 12.7039 15.3521 13.0082 14.499 13.5782C13.646 14.1482 12.9811 14.9584 12.5884 15.9063C12.1958 16.8542 12.0931 17.8972 12.2932 18.9035C12.4934 19.9098 12.9875 20.8341 13.713 21.5596C14.4384 22.285 15.3628 22.7791 16.369 22.9793C17.3753 23.1794 18.4183 23.0767 19.3662 22.6841C20.3141 22.2914 21.1243 21.6265 21.6943 20.7735C22.2643 19.9204 22.5686 18.9174 22.5686 17.8914C22.5686 16.5156 22.022 15.1962 21.0492 14.2233C20.0763 13.2505 18.7569 12.7039 17.3811 12.7039Z" fill="#444444"/>
</svg>
