<svg width="24" height="24" viewBox="0 0 24 24" fill="none" xmlns="http://www.w3.org/2000/svg">
<path d="M17.0943 15.0858H16.0005L15.5898 14.7429C16.8893 13.1659 17.7099 11.177 17.7099 8.91431C17.7099 3.977 13.7435 0 8.82094 0C3.96575 0 0 3.977 0 8.91431C0 13.8516 3.96575 17.8286 8.88906 17.8286C11.0773 17.8286 13.1285 17.0056 14.701 15.7031L15.1111 16.046V17.1429L21.9487 24L24 21.9429L17.0943 15.0858ZM8.88906 15.0858C5.47019 15.0858 2.73513 12.3428 2.73513 8.91431C2.73513 5.48569 5.47019 2.74294 8.88906 2.74294C12.3078 2.74294 15.0429 5.48569 15.0429 8.91431C15.0429 12.3428 12.3078 15.0858 8.88906 15.0858Z" fill="#444444"/>
</svg>
